<svg id="Layer_1" data-name="Layer 1" xmlns="http://www.w3.org/2000/svg" viewBox="0 0 95.25 92"><defs><style>.cls-1{opacity:0.5;}.cls-2{fill:#fff;}.cls-3{fill:#f8ca00;}</style></defs><title>ifinity</title><g class="cls-1"><polygon class="cls-2" points="59 67 59 24 87.58 24 95.25 17 30 17 30 74 95.25 74 87.58 67 59 67"/></g><rect class="cls-2" x="40.36" y="17.69" width="10.77" height="56.36"/><rect class="cls-2" x="23.73" y="24.74" width="9.76" height="41.84"/><rect class="cls-2" x="28.28" y="30.76" width="30.94" height="30.74"/><polygon class="cls-2" points="93.71 72.6 30.31 72.6 30.31 74.04 95.25 74.04 93.71 72.6"/><polygon class="cls-2" points="95.25 17 30.31 17 30.31 18.45 93.69 18.45 95.25 17"/><rect class="cls-2" x="43.69" y="13.13" width="3.94" height="3.94"/><rect class="cls-2" x="53.6" y="13.13" width="3.94" height="3.94"/><rect class="cls-2" x="63.5" y="13.13" width="3.94" height="3.94"/><rect class="cls-2" x="43.69" y="74.04" width="3.94" height="3.94"/><rect class="cls-2" x="53.6" y="74.04" width="3.94" height="3.94"/><rect class="cls-2" x="63.5" y="74.04" width="3.94" height="3.94"/><rect class="cls-2" x="53.01" y="40.12" width="12.44" height="12.44" transform="translate(-15.42 55.45) rotate(-45)"/><polygon class="cls-3" points="53.33 45.63 39.5 38.72 39.5 52.54 53.33 45.63"/><path class="cls-3" d="M75.3,11h-35a2,2,0,0,1,0-4h35A2,2,0,0,1,75.3,11Z"/><path class="cls-3" d="M60.3,4h-20a2,2,0,0,1,0-4h20A2,2,0,0,1,60.3,4Z"/><path class="cls-3" d="M75.3,85h-35a2,2,0,0,1,0-4h35A2,2,0,0,1,75.3,85Z"/><path class="cls-3" d="M60.3,92h-20a2,2,0,0,1,0-4h20A2,2,0,0,1,60.3,92Z"/><polygon class="cls-2" points="30.37 33.46 37.32 45.5 30.37 57.54 16.46 57.54 9.51 45.5 16.46 33.46 30.37 33.46"/><rect class="cls-3" x="35.42" y="38.53" width="1.42" height="13.98"/><rect class="cls-3" x="31.42" y="38.53" width="1.42" height="13.98"/><rect class="cls-3" x="27.42" y="38.53" width="1.42" height="13.98"/><rect class="cls-3" x="23.42" y="38.53" width="1.42" height="13.98"/><polygon class="cls-3" points="7.67 58.79 0 45.5 7.67 32.21 12 34.71 5.77 45.5 12 56.29 7.67 58.79"/></svg>