<svg id="Layer_1" data-name="Layer 1" xmlns="http://www.w3.org/2000/svg" viewBox="0 0 28.05 28.05"><defs><style>.cls-1{fill:#f8ca00;}.cls-2,.cls-3{fill:#fff;}.cls-2{opacity:0.5;}</style></defs><title>ifinity</title><rect class="cls-1" x="9.8" y="9.6" width="8.84" height="8.84" transform="translate(-5.75 14.17) rotate(-45)"/><polygon class="cls-2" points="14.02 28.05 19.95 22.12 17.83 20 14.02 23.8 10.22 20 8.1 22.12 14.02 28.05"/><polygon class="cls-2" points="14.02 0 8.1 5.93 10.22 8.05 14.02 4.24 17.83 8.05 19.95 5.93 14.02 0"/><polygon class="cls-3" points="0 14.02 5.93 19.95 8.05 17.83 4.24 14.02 8.05 10.22 5.93 8.1 0 14.02"/><polygon class="cls-3" points="28.05 14.02 22.12 8.1 20 10.22 23.8 14.02 20 17.83 22.12 19.95 28.05 14.02"/></svg>