<svg id="Layer_1" data-name="Layer 1" xmlns="http://www.w3.org/2000/svg" viewBox="0 0 70.7 69.98"><defs><style>.cls-1,.cls-5{fill:#ea5455;}.cls-10,.cls-2{fill:#fff;}.cls-2{opacity:0.5;}.cls-3,.cls-4{fill:#f8ca00;}.cls-4,.cls-5,.cls-7,.cls-9{opacity:0.49;}.cls-6,.cls-7{fill:#5fc9f3;}.cls-8,.cls-9{fill:#73f7dd;}</style></defs><title>ifinity</title><rect class="cls-1" x="39.09" y="33.38" width="52.87" height="2.99" transform="translate(30.65 100.4) rotate(-90)"/><rect class="cls-1" x="64.03" y="8.44" width="6.67" height="2.99" transform="translate(134.73 19.86) rotate(180)"/><rect class="cls-1" x="64.03" y="58.44" width="6.67" height="2.99" transform="translate(134.73 119.87) rotate(180)"/><rect class="cls-2" x="62.79" y="64.55" width="5.46" height="2.99" transform="translate(131.56 0.52) rotate(90)"/><rect class="cls-2" x="2.44" y="64.55" width="5.46" height="2.99" transform="translate(71.21 60.87) rotate(90)"/><rect class="cls-2" x="62.79" y="2.44" width="5.46" height="2.99" transform="translate(69.46 -61.59) rotate(90)"/><rect class="cls-2" x="2.44" y="2.44" width="5.46" height="2.99" transform="translate(9.11 -1.24) rotate(90)"/><rect class="cls-3" x="-21.26" y="33.38" width="52.87" height="2.99" transform="translate(-29.7 40.05) rotate(-90)"/><rect class="cls-3" y="8.44" width="6.67" height="2.99" transform="translate(6.67 19.86) rotate(180)"/><rect class="cls-3" y="58.44" width="6.67" height="2.99" transform="translate(6.67 119.87) rotate(180)"/><rect class="cls-4" x="-20.61" y="33.65" width="43.46" height="2.16" transform="translate(35.84 33.61) rotate(90)"/><rect class="cls-3" x="-21.26" y="33.38" width="52.87" height="2.99" transform="translate(-29.7 40.05) rotate(-90)"/><rect class="cls-3" y="8.44" width="6.67" height="2.99" transform="translate(6.67 19.86) rotate(180)"/><rect class="cls-4" x="-20.61" y="33.65" width="43.46" height="2.16" transform="translate(35.84 33.61) rotate(90)"/><rect class="cls-5" x="47.79" y="33.65" width="43.46" height="2.16" transform="translate(104.25 -34.79) rotate(90)"/><rect class="cls-6" x="9" y="63.31" width="52.87" height="2.99" transform="translate(70.88 129.6) rotate(180)"/><rect class="cls-6" x="7.16" y="65.15" width="6.67" height="2.99" transform="translate(77.14 56.14) rotate(90)"/><rect class="cls-6" x="57.17" y="65.15" width="6.67" height="2.99" transform="translate(127.14 6.14) rotate(90)"/><rect class="cls-7" x="13.56" y="67.78" width="43.46" height="2.16"/><rect class="cls-6" x="9" y="63.31" width="52.87" height="2.99" transform="translate(70.88 129.6) rotate(180)"/><rect class="cls-6" x="7.16" y="65.15" width="6.67" height="2.99" transform="translate(77.14 56.14) rotate(90)"/><rect class="cls-7" x="13.56" y="67.78" width="43.46" height="2.16"/><rect class="cls-8" x="9.12" y="3.68" width="52.87" height="2.99"/><rect class="cls-8" x="57.17" y="1.84" width="6.67" height="2.99" transform="translate(57.17 63.84) rotate(-90)"/><rect class="cls-8" x="7.16" y="1.84" width="6.67" height="2.99" transform="translate(7.16 13.83) rotate(-90)"/><rect class="cls-9" x="13.98" y="0.04" width="43.46" height="2.16" transform="translate(71.41 2.23) rotate(180)"/><rect class="cls-8" x="9.12" y="3.68" width="52.87" height="2.99"/><rect class="cls-8" x="57.17" y="1.84" width="6.67" height="2.99" transform="translate(57.17 63.84) rotate(-90)"/><rect class="cls-9" x="13.98" y="0.04" width="43.46" height="2.16" transform="translate(71.41 2.23) rotate(180)"/><path class="cls-10" d="M56.32,14.11V55.59H14.84V14.11H56.32m3-3H11.82V58.61H59.34V11.09h0Z"/><polygon class="cls-10" points="24.49 56.47 28.73 56.47 36.42 48.78 44.1 56.47 48.34 56.47 36.42 44.54 24.49 56.47"/><polygon class="cls-10" points="13.64 26.63 27.36 13.47 23.11 13.47 13.64 22.38 13.64 26.63"/><polygon class="cls-10" points="36.36 13.47 32.12 13.47 13.64 31.38 13.64 35.63 36.36 13.47"/><polygon class="cls-10" points="33.49 56.47 39.34 56.47 36.42 53.54 33.49 56.47"/><polygon class="cls-10" points="13.64 40.38 13.64 44.63 36.68 21.77 57.64 42.55 57.64 38.3 36.68 17.53 13.64 40.38"/><polygon class="cls-10" points="36.47 13.47 57.64 33.55 57.64 29.3 40.72 13.47 36.47 13.47"/><polygon class="cls-10" points="49.72 13.47 45.48 13.47 57.64 24.55 57.64 20.3 49.72 13.47"/><polygon class="cls-10" points="13.64 49.38 13.64 53.63 36.68 30.77 57.64 51.55 57.64 47.3 36.68 26.53 13.64 49.38"/><polygon class="cls-10" points="15.49 56.47 19.73 56.47 36.42 39.78 53.1 56.47 57.64 56.47 57.64 56.3 36.64 35.54 15.49 56.47"/></svg>